<svg width="539" height="382" viewBox="0 0 539 382" fill="none" xmlns="http://www.w3.org/2000/svg">
<g clip-path="url(#clip0_1_116)">
<path d="M502.83 381.963L503.488 380.745C494.666 375.969 483.685 370.026 477.95 360.272C472.297 350.657 472.17 337.6 477.619 326.197C482.257 316.492 490.776 307.798 502.255 301.053C504.519 299.723 506.896 298.462 509.194 297.243C514.751 294.295 520.496 291.247 525.233 286.923C531.758 280.968 536.695 270.974 533.015 262.072C531.805 259.23 529.823 256.785 527.295 255.015C524.766 253.244 521.792 252.218 518.711 252.054L518.633 253.437C521.456 253.587 524.18 254.526 526.497 256.147C528.814 257.769 530.631 260.008 531.74 262.61C535.16 270.883 530.469 280.27 524.301 285.9C519.693 290.106 514.026 293.112 508.546 296.019C506.235 297.245 503.844 298.513 501.554 299.859C489.836 306.744 481.128 315.645 476.371 325.599C470.726 337.413 470.874 350.968 476.758 360.975C482.688 371.06 493.857 377.106 502.83 381.963Z" fill="#F1F1F1"/>
<path d="M509.942 259.353C503.256 259.353 497.835 256.718 497.835 253.467C497.835 250.217 503.256 247.582 509.942 247.582C516.628 247.582 522.048 250.217 522.048 253.467C522.048 256.718 516.628 259.353 509.942 259.353Z" fill="#F1F1F1"/>
<path d="M500.257 298.129C493.57 298.129 488.15 295.494 488.15 292.243C488.15 288.993 493.57 286.358 500.257 286.358C506.943 286.358 512.363 288.993 512.363 292.243C512.363 295.494 506.943 298.129 500.257 298.129Z" fill="#F1F1F1"/>
<path d="M522.394 304.361C515.708 304.361 510.287 301.726 510.287 298.475C510.287 295.224 515.708 292.589 522.394 292.589C529.08 292.589 534.5 295.224 534.5 298.475C534.5 301.726 529.08 304.361 522.394 304.361Z" fill="#F1F1F1"/>
<path d="M487.804 336.905C481.118 336.905 475.698 334.269 475.698 331.019C475.698 327.768 481.118 325.133 487.804 325.133C494.49 325.133 499.911 327.768 499.911 331.019C499.911 334.269 494.49 336.905 487.804 336.905Z" fill="#F1F1F1"/>
<path d="M463.591 336.905C456.905 336.905 451.485 334.269 451.485 331.019C451.485 327.768 456.905 325.133 463.591 325.133C470.278 325.133 475.698 327.768 475.698 331.019C475.698 334.269 470.278 336.905 463.591 336.905Z" fill="#F1F1F1"/>
<path d="M17.6158 322.248H214.661C219.332 322.243 223.809 320.383 227.112 317.078C230.414 313.772 232.272 309.291 232.277 304.616V18.5949C232.272 13.9202 230.414 9.4386 227.112 6.13314C223.809 2.82768 219.332 0.96835 214.661 0.963074H17.6158C12.9454 0.968352 8.46784 2.82768 5.1654 6.13314C1.86296 9.4386 0.00532287 13.9202 5.13937e-05 18.5949V304.616C0.00532287 309.291 1.86296 313.772 5.1654 317.078C8.46784 320.383 12.9454 322.243 17.6158 322.248V322.248Z" fill="#E6E6E6"/>
<path d="M17.2689 310.998H215.008C216.448 310.997 217.828 310.424 218.846 309.405C219.864 308.386 220.437 307.004 220.438 305.563V17.6477C220.437 16.2067 219.864 14.8252 218.846 13.8063C217.828 12.7873 216.448 12.2142 215.008 12.2125H17.2689C15.8292 12.2142 14.4489 12.7873 13.4309 13.8063C12.4129 14.8252 11.8402 16.2067 11.8386 17.6477V305.563C11.8402 307.004 12.4129 308.386 13.4309 309.405C14.4489 310.424 15.8292 310.997 17.2689 310.998V310.998Z" fill="white"/>
<path d="M116.888 7.86277C116.06 7.86277 115.389 7.19123 115.389 6.36284C115.389 5.53446 116.06 4.86292 116.888 4.86292C117.715 4.86292 118.386 5.53446 118.386 6.36284C118.386 7.19123 117.715 7.86277 116.888 7.86277Z" fill="white"/>
<path d="M36.4365 201.801H195.84C195.973 201.801 196.1 201.748 196.193 201.654C196.287 201.561 196.339 201.434 196.339 201.301V124.829C196.339 124.697 196.287 124.57 196.193 124.476C196.1 124.382 195.973 124.33 195.84 124.33C195.708 124.33 195.581 124.382 195.488 124.476C195.394 124.57 195.342 124.697 195.342 124.829V200.802H36.4365C36.3045 200.802 36.1781 200.855 36.0849 200.949C35.9918 201.042 35.9395 201.169 35.9395 201.301C35.9395 201.433 35.9918 201.56 36.0849 201.654C36.1781 201.747 36.3045 201.8 36.4365 201.801V201.801Z" fill="#3F3D56"/>
<path d="M161.783 196.308H176.281C176.674 196.308 177.05 196.151 177.328 195.873C177.606 195.596 177.762 195.219 177.762 194.826V174.822C177.762 174.429 177.606 174.052 177.328 173.774C177.05 173.496 176.674 173.34 176.281 173.339H161.783C161.39 173.34 161.014 173.496 160.736 173.774C160.459 174.052 160.302 174.429 160.302 174.822V194.826C160.302 195.219 160.459 195.596 160.736 195.873C161.014 196.151 161.39 196.308 161.783 196.308Z" fill="#DAA520"/>
<path d="M135.343 196.308H149.842C150.234 196.308 150.611 196.151 150.888 195.873C151.166 195.596 151.322 195.219 151.323 194.826V155.848C151.322 155.455 151.166 155.078 150.888 154.8C150.611 154.522 150.234 154.366 149.842 154.365H135.343C134.951 154.366 134.574 154.522 134.297 154.8C134.019 155.078 133.863 155.455 133.862 155.848V194.826C133.863 195.219 134.019 195.596 134.297 195.873C134.574 196.151 134.951 196.308 135.343 196.308V196.308Z" fill="#DAA520"/>
<path d="M108.903 196.308H123.402C123.794 196.308 124.171 196.151 124.448 195.873C124.726 195.596 124.882 195.219 124.883 194.826V174.822C124.882 174.429 124.726 174.052 124.448 173.774C124.171 173.496 123.794 173.34 123.402 173.339H108.903C108.511 173.34 108.134 173.496 107.857 173.774C107.579 174.052 107.423 174.429 107.423 174.822V194.826C107.423 195.219 107.579 195.596 107.857 195.873C108.134 196.151 108.511 196.308 108.903 196.308V196.308Z" fill="#DAA520"/>
<path d="M82.4638 196.308H96.9622C97.3459 196.316 97.7172 196.172 97.9948 195.907C98.2724 195.642 98.4336 195.277 98.4431 194.893V148.291C98.4336 147.907 98.2724 147.542 97.9948 147.277C97.7172 147.012 97.3459 146.867 96.9622 146.876H82.4638C82.0802 146.867 81.7089 147.012 81.4313 147.277C81.1538 147.542 80.9925 147.907 80.983 148.291V194.893C80.9925 195.277 81.1538 195.642 81.4313 195.907C81.7089 196.172 82.0802 196.316 82.4638 196.308V196.308Z" fill="#DAA520"/>
<path d="M56.0241 196.308H70.5225C70.9151 196.308 71.2915 196.151 71.5691 195.873C71.8468 195.596 72.003 195.219 72.0034 194.826V134.876C72.003 134.483 71.8468 134.107 71.5691 133.829C71.2915 133.551 70.9151 133.395 70.5225 133.394H56.0241C55.6315 133.395 55.2551 133.551 54.9775 133.829C54.6999 134.107 54.5437 134.483 54.5432 134.876V194.826C54.5437 195.219 54.6999 195.596 54.9775 195.873C55.2551 196.151 55.6315 196.308 56.0241 196.308V196.308Z" fill="#DAA520"/>
<path d="M169.032 167.348C167.379 167.348 166.039 166.006 166.039 164.352C166.039 162.697 167.379 161.356 169.032 161.356C170.685 161.356 172.025 162.697 172.025 164.352C172.025 166.006 170.685 167.348 169.032 167.348Z" fill="#3F3D56"/>
<path d="M142.592 147.874C140.939 147.874 139.599 146.533 139.599 144.878C139.599 143.224 140.939 141.882 142.592 141.882C144.245 141.882 145.586 143.224 145.586 144.878C145.586 146.533 144.245 147.874 142.592 147.874Z" fill="#3F3D56"/>
<path d="M116.153 167.348C114.5 167.348 113.159 166.006 113.159 164.352C113.159 162.697 114.5 161.356 116.153 161.356C117.806 161.356 119.146 162.697 119.146 164.352C119.146 166.006 117.806 167.348 116.153 167.348Z" fill="#3F3D56"/>
<path d="M89.713 138.387C88.0599 138.387 86.7198 137.046 86.7198 135.391C86.7198 133.737 88.0599 132.395 89.713 132.395C91.3661 132.395 92.7062 133.737 92.7062 135.391C92.7062 137.046 91.3661 138.387 89.713 138.387Z" fill="#3F3D56"/>
<path d="M63.2733 127.402C61.6202 127.402 60.2802 126.061 60.2802 124.406C60.2802 122.752 61.6202 121.41 63.2733 121.41C64.9264 121.41 66.2665 122.752 66.2665 124.406C66.2665 126.061 64.9264 127.402 63.2733 127.402Z" fill="#3F3D56"/>
<path d="M116.09 165.023L142.592 145.154L168.733 164.751L169.332 163.952L142.592 143.906L116.216 163.681L90.005 134.971L89.8992 134.928L63.4596 124.265L63.0867 125.192L89.4212 135.812L116.09 165.023Z" fill="#3F3D56"/>
<path d="M349.014 156.402C350.026 156.401 351.025 156.623 351.942 157.052C352.858 157.481 353.669 158.106 354.318 158.884L385.317 157.914L386.53 152.683L402.572 160.519L400.497 174.844L353.254 168.79C352.385 169.466 351.367 169.924 350.285 170.127C349.203 170.33 348.088 170.271 347.033 169.956C345.978 169.641 345.014 169.078 344.22 168.315C343.427 167.551 342.826 166.609 342.47 165.567C342.113 164.525 342.01 163.412 342.169 162.322C342.329 161.232 342.746 160.195 343.386 159.299C344.026 158.402 344.87 157.672 345.849 157.168C346.828 156.664 347.913 156.402 349.014 156.402H349.014Z" fill="#9F616A"/>
<path d="M406.434 372.854H397.952L393.917 340.11L406.435 340.111L406.434 372.854Z" fill="#9F616A"/>
<path d="M408.597 370.082L391.894 370.082H391.894C389.071 370.082 386.363 371.204 384.367 373.202C382.371 375.2 381.25 377.91 381.249 380.735V381.082L408.597 381.083L408.597 370.082Z" fill="#2F2E41"/>
<path d="M438.436 366.103L430.288 368.46L417.33 338.125L429.355 334.647L438.436 366.103Z" fill="#9F616A"/>
<path d="M439.746 362.84L423.7 367.481L423.699 367.481C420.987 368.265 418.698 370.096 417.334 372.57C415.971 375.044 415.645 377.959 416.429 380.674L416.525 381.006L442.797 373.408L439.746 362.84Z" fill="#2F2E41"/>
<path d="M416.849 230.673C416.849 230.673 419.866 239.098 415.107 250.592L411.434 297.931L410.348 365.257H394.886L385.529 296.623L379.909 234.389L416.849 230.673Z" fill="#2F2E41"/>
<path d="M425.545 230.673C425.545 230.673 428.562 239.098 423.803 250.592L420.131 297.931L438.414 362.052H422.952L394.225 296.623L388.605 234.389L425.545 230.673Z" fill="#2F2E41"/>
<path d="M380.187 122.094C370.803 122.094 363.196 114.48 363.196 105.088C363.196 95.6951 370.803 88.0809 380.187 88.0809C389.571 88.0809 397.178 95.6951 397.178 105.088C397.178 114.48 389.571 122.094 380.187 122.094Z" fill="#9F616A"/>
<path d="M377.915 146.456L381.358 130.443L398.891 120.479L402.446 125.461C402.446 125.461 427.534 132.059 424.5 160.893C421.465 189.728 422.849 203.576 422.849 203.576L429.767 235.428C429.767 235.428 427.637 235.794 378.761 244.34L376.686 175.098L377.915 146.456Z" fill="#CBCBCB"/>
<path opacity="0.1" d="M394.923 302.285L410.845 334.475V343.703L394.923 302.285Z" fill="black"/>
<path d="M398.507 110.467C396.887 114.809 390.757 115.411 388.595 111.312C388.427 110.994 388.29 110.66 388.186 110.316C387.593 108.347 387.966 106.178 386.872 104.295C386.606 103.824 386.224 103.429 385.762 103.147C382.126 101.001 378.547 107.812 375.165 105.906C373.092 104.738 373.535 101.344 371.69 99.8404C369.255 97.8554 365.738 100.812 362.615 100.474C359.141 100.099 357.498 95.6937 358.253 92.279C359.174 88.1146 362.429 84.7346 366.248 82.8436C370.068 80.9526 374.408 80.3816 378.668 80.2756C383.508 80.1552 388.573 80.6694 392.666 83.2588C397.643 86.4078 400.447 92.2701 401.067 98.1306C401.445 101.696 399.83 106.921 398.507 110.467Z" fill="#2F2E41"/>
<path d="M315.246 227.2C315.221 227.201 315.196 227.2 315.171 227.199C302.37 226.528 290.304 221.003 281.428 211.746C272.552 202.489 267.531 190.196 267.387 177.366C267.244 164.536 271.988 152.133 280.654 142.68C289.321 133.226 301.26 127.431 314.043 126.474C314.201 126.461 314.36 126.482 314.51 126.534C314.66 126.586 314.797 126.668 314.914 126.776C315.03 126.882 315.123 127.01 315.187 127.154C315.251 127.298 315.285 127.453 315.286 127.61L316.388 226.035C316.391 226.341 316.272 226.635 316.058 226.854C315.844 227.072 315.552 227.197 315.246 227.2V227.2Z" fill="#3F3D56"/>
<path d="M354.79 142.749C354.397 142.754 354.023 142.914 353.748 143.195L319.895 177.846C319.759 177.985 319.652 178.149 319.579 178.33C319.507 178.51 319.471 178.703 319.474 178.897L320.001 225.994C320.003 226.196 320.046 226.396 320.128 226.58C320.211 226.765 320.33 226.93 320.479 227.066C320.629 227.204 320.806 227.31 320.998 227.377C321.19 227.443 321.394 227.47 321.596 227.455C331.009 226.75 340.038 223.431 347.67 217.873C355.302 212.314 361.234 204.735 364.8 195.988C368.365 187.24 369.423 177.671 367.854 168.355C366.285 159.039 362.151 150.346 355.918 143.252C355.783 143.099 355.618 142.975 355.433 142.889C355.249 142.803 355.048 142.755 354.845 142.749C354.827 142.749 354.808 142.749 354.79 142.749Z" fill="#E6E6E6"/>
<path d="M320.367 126.071C319.989 126.076 319.627 126.224 319.354 126.486C319.207 126.625 319.091 126.794 319.013 126.98C318.935 127.167 318.896 127.368 318.899 127.57L319.375 170.063C319.378 170.356 319.468 170.641 319.633 170.882C319.798 171.124 320.031 171.311 320.303 171.42C320.574 171.529 320.871 171.555 321.157 171.495C321.444 171.434 321.705 171.29 321.91 171.081L351.45 140.843C351.586 140.704 351.693 140.539 351.766 140.358C351.838 140.178 351.874 139.984 351.872 139.79C351.87 139.595 351.829 139.403 351.752 139.224C351.676 139.045 351.565 138.883 351.426 138.747C351.408 138.729 351.389 138.712 351.371 138.696C342.779 131.126 331.888 126.679 320.458 126.073C320.428 126.072 320.397 126.071 320.367 126.071Z" fill="#DAA520"/>
<path d="M366.309 175.79C367.321 175.789 368.32 176.011 369.237 176.44C370.153 176.869 370.964 177.494 371.612 178.271L402.611 177.302L403.825 172.071L419.867 179.906L417.792 194.232L370.549 188.178C369.68 188.854 368.662 189.312 367.58 189.515C366.498 189.718 365.383 189.659 364.328 189.344C363.273 189.029 362.309 188.466 361.515 187.703C360.721 186.939 360.121 185.997 359.764 184.955C359.408 183.912 359.305 182.8 359.464 181.71C359.623 180.619 360.04 179.583 360.681 178.687C361.321 177.79 362.165 177.06 363.144 176.556C364.123 176.052 365.208 175.79 366.309 175.79H366.309Z" fill="#9F616A"/>
<path d="M422.481 185.807L423.342 143.13C423.372 141.637 423.107 140.152 422.56 138.763C422.013 137.373 421.197 136.105 420.158 135.033C419.119 133.961 417.877 133.105 416.506 132.516C415.135 131.927 413.66 131.616 412.168 131.601C410.676 131.586 409.195 131.867 407.812 132.428C406.429 132.99 405.171 133.82 404.11 134.87C403.05 135.921 402.208 137.172 401.633 138.551C401.059 139.929 400.763 141.408 400.763 142.902V174.091L422.481 185.807Z" fill="#CBCBCB"/>
<path d="M274.735 381.796H538.308C538.492 381.796 538.668 381.723 538.797 381.594C538.927 381.464 539 381.288 539 381.104C539 380.92 538.927 380.744 538.797 380.614C538.668 380.485 538.492 380.412 538.308 380.412H274.735C274.552 380.412 274.376 380.485 274.246 380.614C274.116 380.744 274.043 380.92 274.043 381.104C274.043 381.288 274.116 381.464 274.246 381.594C274.376 381.723 274.552 381.796 274.735 381.796Z" fill="#CBCBCB"/>
</g>
<defs>
<clipPath id="clip0_1_116">
<rect width="539" height="381" fill="white" transform="matrix(-1 0 0 1 539 0.963074)"/>
</clipPath>
</defs>
</svg>
