<svg width="101" height="101" viewBox="0 0 101 101" fill="none" xmlns="http://www.w3.org/2000/svg">
<circle cx="50.5" cy="50.8671" r="50" fill="#DAA520"/>
<g clip-path="url(#clip0_5_601)">
<path d="M58.65 48.0421L45.15 44.0921C43.5875 43.6421 42.5 42.1796 42.5 40.5546C42.5 38.5171 44.15 36.8671 46.1875 36.8671H54.475C56 36.8671 57.5 37.3296 58.75 38.1796C59.5125 38.6921 60.5375 38.5671 61.1875 37.9296L65.5375 33.6796C66.425 32.8171 66.3 31.3796 65.3125 30.6171C62.25 28.2171 58.425 26.8796 54.5 26.8671V20.8671C54.5 19.7671 53.6 18.8671 52.5 18.8671H48.5C47.4 18.8671 46.5 19.7671 46.5 20.8671V26.8671H46.1875C38.225 26.8671 31.825 33.7046 32.5625 41.8171C33.0875 47.5796 37.4875 52.2671 43.0375 53.8921L55.85 57.6421C57.4125 58.1046 58.5 59.5546 58.5 61.1796C58.5 63.2171 56.85 64.8671 54.8125 64.8671H46.525C45 64.8671 43.5 64.4046 42.25 63.5546C41.4875 63.0421 40.4625 63.1671 39.8125 63.8046L35.4625 68.0546C34.575 68.9171 34.7 70.3546 35.6875 71.1171C38.75 73.5171 42.575 74.8546 46.5 74.8671V80.8671C46.5 81.9671 47.4 82.8671 48.5 82.8671H52.5C53.6 82.8671 54.5 81.9671 54.5 80.8671V74.8421C60.325 74.7296 65.7875 71.2671 67.7125 65.7546C70.4 58.0546 65.8875 50.1546 58.65 48.0421V48.0421Z" fill="white"/>
</g>
<defs>
<clipPath id="clip0_5_601">
<rect width="36" height="64" fill="white" transform="translate(32.5 18.8671)"/>
</clipPath>
</defs>
</svg>
