<svg width="27" height="26" viewBox="0 0 27 26" fill="none" xmlns="http://www.w3.org/2000/svg">
<g filter="url(#filter0_d_1_95)">
<circle cx="13.7363" cy="13" r="25" fill="white"/>
</g>
<path fill-rule="evenodd" clip-rule="evenodd" d="M3.98633 11.1042C3.98633 6.7665 7.50283 3.25 11.8405 3.25H15.6322C19.9698 3.25 23.4863 6.7665 23.4863 11.1042C23.4863 15.4418 19.9698 18.9583 15.6322 18.9583H15.253V22.75C15.253 22.75 3.98633 20.8542 3.98633 11.1042ZM15.7356 6.76108C16.2935 7.13158 16.7144 7.73229 16.7144 8.53775C16.7144 9.3925 16.3694 10.0208 15.8109 10.4054C15.5904 10.5547 15.3471 10.667 15.0905 10.738V11.5678C15.0905 11.6745 15.0695 11.7802 15.0286 11.8788C14.9878 11.9773 14.928 12.0669 14.8525 12.1424C14.7771 12.2178 14.6875 12.2777 14.5889 12.3185C14.4903 12.3593 14.3847 12.3803 14.278 12.3803C14.1713 12.3803 14.0656 12.3593 13.9671 12.3185C13.8685 12.2777 13.7789 12.2178 13.7035 12.1424C13.628 12.0669 13.5682 11.9773 13.5273 11.8788C13.4865 11.7802 13.4655 11.6745 13.4655 11.5678V10.0528C13.4654 9.84665 13.5438 9.64819 13.6846 9.49763C13.8254 9.34707 14.0181 9.25566 14.2238 9.24192C14.5239 9.22188 14.7514 9.16229 14.889 9.0675C14.9445 9.03068 14.9894 8.97986 15.019 8.92017C15.0515 8.85517 15.0894 8.73925 15.0894 8.53721C15.0894 8.36767 15.0228 8.23821 14.8359 8.11363C14.6236 7.97279 14.2823 7.86879 13.8723 7.85579C13.4671 7.84279 13.0733 7.92188 12.7835 8.06217C12.4932 8.203 12.387 8.36117 12.3567 8.47763C12.3321 8.58302 12.2867 8.68244 12.2232 8.77005C12.1597 8.85767 12.0793 8.9317 11.9868 8.98782C11.8942 9.04394 11.7914 9.08101 11.6844 9.09685C11.5773 9.11269 11.4682 9.10698 11.3633 9.08007C11.2585 9.05315 11.1601 9.00556 11.074 8.9401C10.9878 8.87464 10.9156 8.79262 10.8615 8.69886C10.8075 8.6051 10.7727 8.50149 10.7592 8.39411C10.7458 8.28672 10.7539 8.17774 10.7832 8.07354C10.9695 7.34717 11.5133 6.87267 12.075 6.60021C12.6384 6.32667 13.3008 6.21129 13.9243 6.23133C14.5429 6.25083 15.2037 6.40683 15.7356 6.76108V6.76108ZM14.278 15.7083C14.5653 15.7083 14.8409 15.5942 15.044 15.391C15.2472 15.1879 15.3613 14.9123 15.3613 14.625C15.3613 14.3377 15.2472 14.0621 15.044 13.859C14.8409 13.6558 14.5653 13.5417 14.278 13.5417C13.9907 13.5417 13.7151 13.6558 13.512 13.859C13.3088 14.0621 13.1947 14.3377 13.1947 14.625C13.1947 14.9123 13.3088 15.1879 13.512 15.391C13.7151 15.5942 13.9907 15.7083 14.278 15.7083V15.7083Z" fill="#DAA520"/>
<defs>
<filter id="filter0_d_1_95" x="-23.2637" y="-24" width="74" height="74" filterUnits="userSpaceOnUse" color-interpolation-filters="sRGB">
<feFlood flood-opacity="0" result="BackgroundImageFix"/>
<feColorMatrix in="SourceAlpha" type="matrix" values="0 0 0 0 0 0 0 0 0 0 0 0 0 0 0 0 0 0 127 0" result="hardAlpha"/>
<feOffset/>
<feGaussianBlur stdDeviation="6"/>
<feComposite in2="hardAlpha" operator="out"/>
<feColorMatrix type="matrix" values="0 0 0 0 0 0 0 0 0 0 0 0 0 0 0 0 0 0 0.15 0"/>
<feBlend mode="normal" in2="BackgroundImageFix" result="effect1_dropShadow_1_95"/>
<feBlend mode="normal" in="SourceGraphic" in2="effect1_dropShadow_1_95" result="shape"/>
</filter>
</defs>
</svg>
