<svg width="101" height="101" viewBox="0 0 101 101" fill="none" xmlns="http://www.w3.org/2000/svg">
<circle cx="50.5" cy="50.8671" r="50" fill="#DAA520"/>
<g clip-path="url(#clip0_5_600)">
<path d="M41.125 45.5146C41.125 46.123 40.8781 46.7065 40.4385 47.1367C39.999 47.5668 39.4029 47.8085 38.7812 47.8085C38.1596 47.8085 37.5635 47.5668 37.124 47.1367C36.6844 46.7065 36.4375 46.123 36.4375 45.5146C36.4375 44.9063 36.6844 44.3228 37.124 43.8926C37.5635 43.4624 38.1596 43.2208 38.7812 43.2208C39.4029 43.2208 39.999 43.4624 40.4385 43.8926C40.8781 44.3228 41.125 44.9063 41.125 45.5146V45.5146ZM44.6812 40.9391C46.5369 40.4207 48.4577 40.1592 50.3875 40.1622C52.4687 40.1622 54.4594 40.4589 56.3031 40.9972C56.6971 41.1036 57.118 41.0546 57.4756 40.8608C57.8331 40.667 58.0989 40.3438 58.2158 39.9605C58.3327 39.5772 58.2915 39.1643 58.101 38.8103C57.9106 38.4564 57.586 38.1896 57.1969 38.0672C54.9869 37.4243 52.693 37.0998 50.3875 37.1037C48.0937 37.1037 45.8844 37.4188 43.8187 37.9968C43.4201 38.1088 43.0832 38.3711 42.8822 38.7262C42.6812 39.0812 42.6325 39.4999 42.7469 39.89C42.8612 40.2802 43.1293 40.6099 43.4921 40.8067C43.8548 41.0034 44.2826 41.051 44.6812 40.9391V40.9391Z" fill="white"/>
<path fill-rule="evenodd" clip-rule="evenodd" d="M50.3874 31.0693C41.0843 31.0693 32.9781 36.281 30.6374 43.6856H28.9187C28.4631 43.6861 28.0131 43.7841 27.6003 43.9727C27.1875 44.1613 26.8218 44.436 26.5288 44.7775C26.2359 45.119 26.0227 45.519 25.9044 45.9496C25.786 46.3802 25.7653 46.8309 25.8437 47.2702L26.6374 51.7356C26.8266 52.8002 27.3936 53.7653 28.2386 54.4607C29.0835 55.1562 30.1522 55.5375 31.2562 55.5374H32.0781C33.0156 57.1064 34.2281 58.5286 35.6562 59.7642L33.3781 67.3401C33.3096 67.5682 33.2963 67.8088 33.3395 68.0428C33.3826 68.2768 33.4808 68.4977 33.6264 68.688C33.7721 68.8783 33.961 69.0328 34.1783 69.1391C34.3955 69.2455 34.6351 69.3008 34.8781 69.3007H41.1281C41.4505 69.3007 41.765 69.2031 42.0285 69.0213C42.292 68.8395 42.4916 68.5824 42.5999 68.2852L44.1062 64.1532C46.0906 64.6823 48.1999 64.9698 50.3906 64.9698C52.5999 64.9698 54.7281 64.6792 56.7281 64.1379L58.4249 68.3342C58.5402 68.6193 58.7404 68.8639 58.9996 69.0362C59.2587 69.2086 59.5648 69.3007 59.8781 69.3007H66.1281C66.3719 69.3004 66.6122 69.2443 66.83 69.1369C67.0477 69.0295 67.2366 68.8736 67.3818 68.6819C67.527 68.4902 67.6243 68.2679 67.666 68.0328C67.7076 67.7977 67.6925 67.5563 67.6218 67.3279L65.2437 59.6633C68.6562 56.6629 70.8124 52.5767 70.8124 48.0195C70.8124 47.5761 70.7906 47.1326 70.7499 46.7013C71.5656 46.3649 72.3374 45.8878 72.9531 45.3433C73.9374 46.2792 75.4999 46.2792 75.4999 44.0679C75.4999 44.75 73.9374 44.75 74.0593 43.9884C74.1906 43.7429 74.2853 43.4803 74.3406 43.2085C74.4141 42.8543 74.3947 42.4876 74.2843 42.1426C74.174 41.7977 73.9761 41.4857 73.7093 41.2358C73.4279 40.9519 73.0576 40.7682 72.6573 40.7139C72.257 40.6596 71.8496 40.7378 71.4999 40.936C71.1784 41.1099 70.9042 41.3568 70.7003 41.6559C70.4963 41.955 70.3687 42.2976 70.3281 42.6549C70.2531 43.3981 70.5843 44.123 71.3281 44.6552C71.07 44.8298 70.7995 44.9862 70.5187 45.1231C68.8499 36.9753 60.2562 31.0693 50.3874 31.0693ZM33.3624 45.5452C34.7843 39.2263 41.6968 34.1278 50.3874 34.1278C60.2187 34.1278 67.6874 40.5935 67.6874 48.0195C67.6874 51.8549 65.7374 55.3906 62.4687 57.9536C62.2257 58.1448 62.0468 58.4029 61.9549 58.6945C61.863 58.9861 61.8624 59.2979 61.9531 59.5899L64.0156 66.2421H60.9374L59.0937 61.6941C58.9452 61.3276 58.6579 61.0314 58.2917 60.8673C57.9254 60.7032 57.5085 60.6838 57.1281 60.8133C55.0624 61.5167 52.7843 61.9113 50.3874 61.9113C48.0936 61.9171 45.8151 61.5459 43.6468 60.8133C43.2576 60.6809 42.8307 60.7043 42.4591 60.8784C42.0874 61.0526 41.8011 61.3633 41.6624 61.7431L40.0218 66.2421H36.9624L38.9406 59.6663C39.0288 59.3733 39.0254 59.0611 38.9307 58.77C38.836 58.4789 38.6544 58.2223 38.4093 58.0331C36.7373 56.7665 35.368 55.158 34.3968 53.3199C34.2667 53.0673 34.0676 52.8549 33.8215 52.7064C33.5755 52.5579 33.2921 52.4791 33.0031 52.4788H31.2531C30.8856 52.4785 30.53 52.3513 30.2488 52.1197C29.9676 51.8881 29.7788 51.5669 29.7156 51.2126L28.9218 46.7472H31.8374C32.1935 46.7469 32.5388 46.6276 32.8162 46.409C33.0935 46.1904 33.2862 45.8856 33.3624 45.5452ZM72.8031 42.9241C72.7474 43.1566 72.6431 43.3753 72.4968 43.5663C72.4501 43.5425 72.4042 43.517 72.3593 43.4899C71.9031 43.2146 71.8687 42.9546 71.8843 42.8078C71.8997 42.6981 71.9407 42.5933 72.0041 42.5015C72.0675 42.4098 72.1516 42.3335 72.2499 42.2787C72.4031 42.1961 72.4999 42.2145 72.6031 42.3154C72.6899 42.3894 72.7545 42.4852 72.7898 42.5925C72.825 42.6997 72.8296 42.8144 72.8031 42.9241Z" fill="white"/>
</g>
<defs>
<clipPath id="clip0_5_600">
<rect width="50" height="48.9362" fill="white" transform="translate(25.5 26.3989)"/>
</clipPath>
</defs>
</svg>
