<svg width="109" height="50" viewBox="0 0 109 50" fill="none" xmlns="http://www.w3.org/2000/svg">
<path d="M3 26L37.3216 4.07808C38.3435 3.4254 39.6577 3.45201 40.6523 4.14552L61 18.3333" stroke="black" stroke-width="6" stroke-linecap="round" stroke-linejoin="round"/>
<path d="M14.8219 6L14.0613 43.9399C14.0277 45.6199 15.3804 47 17.0607 47H54" stroke="black" stroke-width="6" stroke-linecap="round"/>
<path d="M24 22.6522L38.609 13L67 31" stroke="#DAA520" stroke-width="5" stroke-linecap="round"/>
<path d="M28.92 35H25.2V28.79H28.02V33.01H29.06L28.92 35ZM36.3825 35H33.8225L32.6925 33.01V35H30.2625V28.79H32.8925L33.9325 30.8V28.79H36.3825V35ZM43.8959 31.76C43.8959 33.92 42.7559 35 40.4759 35H37.7859V28.79H40.5359C41.7559 28.79 42.6193 29.0467 43.1259 29.56C43.6393 30.0667 43.8959 30.8 43.8959 31.76ZM40.8459 33.43V30.65H40.5259V33.43H40.8459Z" fill="#DAA520"/>
<path d="M28.468 39.108C28.468 39.332 28.414 39.542 28.306 39.738C28.202 39.934 28.036 40.092 27.808 40.212C27.584 40.332 27.3 40.392 26.956 40.392H26.254V42H25.414V37.812H26.956C27.28 37.812 27.556 37.868 27.784 37.98C28.012 38.092 28.182 38.246 28.294 38.442C28.41 38.638 28.468 38.86 28.468 39.108ZM26.92 39.714C27.152 39.714 27.324 39.662 27.436 39.558C27.548 39.45 27.604 39.3 27.604 39.108C27.604 38.7 27.376 38.496 26.92 38.496H26.254V39.714H26.92ZM31.8244 42L30.9004 40.368H30.5044V42H29.6644V37.812H31.2364C31.5604 37.812 31.8364 37.87 32.0644 37.986C32.2924 38.098 32.4624 38.252 32.5744 38.448C32.6904 38.64 32.7484 38.856 32.7484 39.096C32.7484 39.372 32.6684 39.622 32.5084 39.846C32.3484 40.066 32.1104 40.218 31.7944 40.302L32.7964 42H31.8244ZM30.5044 39.738H31.2064C31.4344 39.738 31.6044 39.684 31.7164 39.576C31.8284 39.464 31.8844 39.31 31.8844 39.114C31.8844 38.922 31.8284 38.774 31.7164 38.67C31.6044 38.562 31.4344 38.508 31.2064 38.508H30.5044V39.738ZM36.0521 42.042C35.6601 42.042 35.3001 41.95 34.9721 41.766C34.6441 41.582 34.3841 41.328 34.1921 41.004C34.0001 40.676 33.9041 40.306 33.9041 39.894C33.9041 39.486 34.0001 39.12 34.1921 38.796C34.3841 38.468 34.6441 38.212 34.9721 38.028C35.3001 37.844 35.6601 37.752 36.0521 37.752C36.4481 37.752 36.8081 37.844 37.1321 38.028C37.4601 38.212 37.7181 38.468 37.9061 38.796C38.0981 39.12 38.1941 39.486 38.1941 39.894C38.1941 40.306 38.0981 40.676 37.9061 41.004C37.7181 41.328 37.4601 41.582 37.1321 41.766C36.8041 41.95 36.4441 42.042 36.0521 42.042ZM36.0521 41.292C36.3041 41.292 36.5261 41.236 36.7181 41.124C36.9101 41.008 37.0601 40.844 37.1681 40.632C37.2761 40.42 37.3301 40.174 37.3301 39.894C37.3301 39.614 37.2761 39.37 37.1681 39.162C37.0601 38.95 36.9101 38.788 36.7181 38.676C36.5261 38.564 36.3041 38.508 36.0521 38.508C35.8001 38.508 35.5761 38.564 35.3801 38.676C35.1881 38.788 35.0381 38.95 34.9301 39.162C34.8221 39.37 34.7681 39.614 34.7681 39.894C34.7681 40.174 34.8221 40.42 34.9301 40.632C35.0381 40.844 35.1881 41.008 35.3801 41.124C35.5761 41.236 35.8001 41.292 36.0521 41.292ZM42.4731 39.108C42.4731 39.332 42.4191 39.542 42.3111 39.738C42.2071 39.934 42.0411 40.092 41.8131 40.212C41.5891 40.332 41.3051 40.392 40.9611 40.392H40.2591V42H39.4191V37.812H40.9611C41.2851 37.812 41.5611 37.868 41.7891 37.98C42.0171 38.092 42.1871 38.246 42.2991 38.442C42.4151 38.638 42.4731 38.86 42.4731 39.108ZM40.9251 39.714C41.1571 39.714 41.3291 39.662 41.4411 39.558C41.5531 39.45 41.6091 39.3 41.6091 39.108C41.6091 38.7 41.3811 38.496 40.9251 38.496H40.2591V39.714H40.9251ZM44.5095 38.49V39.54H45.9195V40.206H44.5095V41.316H46.0995V42H43.6695V37.806H46.0995V38.49H44.5095ZM49.6228 42L48.6988 40.368H48.3028V42H47.4628V37.812H49.0348C49.3588 37.812 49.6348 37.87 49.8628 37.986C50.0908 38.098 50.2608 38.252 50.3728 38.448C50.4888 38.64 50.5468 38.856 50.5468 39.096C50.5468 39.372 50.4668 39.622 50.3068 39.846C50.1468 40.066 49.9088 40.218 49.5928 40.302L50.5948 42H49.6228ZM48.3028 39.738H49.0048C49.2328 39.738 49.4028 39.684 49.5148 39.576C49.6268 39.464 49.6828 39.31 49.6828 39.114C49.6828 38.922 49.6268 38.774 49.5148 38.67C49.4028 38.562 49.2328 38.508 49.0048 38.508H48.3028V39.738ZM54.7566 37.812V38.49H53.6406V42H52.8006V38.49H51.6846V37.812H54.7566ZM59.2995 37.812L57.8835 40.542V42H57.0435V40.542L55.6215 37.812H56.5695L57.4695 39.726L58.3635 37.812H59.2995ZM63.2536 37.812V42H62.4136V37.812H63.2536ZM68.2655 42H67.4255L65.5235 39.126V42H64.6835V37.806H65.5235L67.4255 40.686V37.806H68.2655V42ZM73.4576 37.812L71.9216 42H70.9016L69.3656 37.812H70.2656L71.4176 41.142L72.5636 37.812H73.4576ZM75.4013 38.49V39.54H76.8113V40.206H75.4013V41.316H76.9913V42H74.5613V37.806H76.9913V38.49H75.4013ZM79.8006 42.042C79.5086 42.042 79.2446 41.992 79.0086 41.892C78.7766 41.792 78.5926 41.648 78.4566 41.46C78.3206 41.272 78.2506 41.05 78.2466 40.794H79.1466C79.1586 40.966 79.2186 41.102 79.3266 41.202C79.4386 41.302 79.5906 41.352 79.7826 41.352C79.9786 41.352 80.1326 41.306 80.2446 41.214C80.3566 41.118 80.4126 40.994 80.4126 40.842C80.4126 40.718 80.3746 40.616 80.2986 40.536C80.2226 40.456 80.1266 40.394 80.0106 40.35C79.8986 40.302 79.7426 40.25 79.5426 40.194C79.2706 40.114 79.0486 40.036 78.8766 39.96C78.7086 39.88 78.5626 39.762 78.4386 39.606C78.3186 39.446 78.2586 39.234 78.2586 38.97C78.2586 38.722 78.3206 38.506 78.4446 38.322C78.5686 38.138 78.7426 37.998 78.9666 37.902C79.1906 37.802 79.4466 37.752 79.7346 37.752C80.1666 37.752 80.5166 37.858 80.7846 38.07C81.0566 38.278 81.2066 38.57 81.2346 38.946H80.3106C80.3026 38.802 80.2406 38.684 80.1246 38.592C80.0126 38.496 79.8626 38.448 79.6746 38.448C79.5106 38.448 79.3786 38.49 79.2786 38.574C79.1826 38.658 79.1346 38.78 79.1346 38.94C79.1346 39.052 79.1706 39.146 79.2426 39.222C79.3186 39.294 79.4106 39.354 79.5186 39.402C79.6306 39.446 79.7866 39.498 79.9866 39.558C80.2586 39.638 80.4806 39.718 80.6526 39.798C80.8246 39.878 80.9726 39.998 81.0966 40.158C81.2206 40.318 81.2826 40.528 81.2826 40.788C81.2826 41.012 81.2246 41.22 81.1086 41.412C80.9926 41.604 80.8226 41.758 80.5986 41.874C80.3746 41.986 80.1086 42.042 79.8006 42.042ZM85.4609 37.812V38.49H84.3449V42H83.5049V38.49H82.3889V37.812H85.4609ZM91.2398 37.812V42H90.3998V39.276L89.2778 42H88.6418L87.5138 39.276V42H86.6738V37.812H87.6278L88.9598 40.926L90.2918 37.812H91.2398ZM93.5102 38.49V39.54H94.9202V40.206H93.5102V41.316H95.1002V42H92.6702V37.806H95.1002V38.49H93.5102ZM100.046 42H99.2056L97.3036 39.126V42H96.4636V37.806H97.3036L99.2056 40.686V37.806H100.046V42ZM104.326 37.812V38.49H103.21V42H102.37V38.49H101.254V37.812H104.326ZM106.985 42.042C106.693 42.042 106.429 41.992 106.193 41.892C105.961 41.792 105.777 41.648 105.641 41.46C105.505 41.272 105.435 41.05 105.431 40.794H106.331C106.343 40.966 106.403 41.102 106.511 41.202C106.623 41.302 106.775 41.352 106.967 41.352C107.163 41.352 107.317 41.306 107.429 41.214C107.541 41.118 107.597 40.994 107.597 40.842C107.597 40.718 107.559 40.616 107.483 40.536C107.407 40.456 107.311 40.394 107.195 40.35C107.083 40.302 106.927 40.25 106.727 40.194C106.455 40.114 106.233 40.036 106.061 39.96C105.893 39.88 105.747 39.762 105.623 39.606C105.503 39.446 105.443 39.234 105.443 38.97C105.443 38.722 105.505 38.506 105.629 38.322C105.753 38.138 105.927 37.998 106.151 37.902C106.375 37.802 106.631 37.752 106.919 37.752C107.351 37.752 107.701 37.858 107.969 38.07C108.241 38.278 108.391 38.57 108.419 38.946H107.495C107.487 38.802 107.425 38.684 107.309 38.592C107.197 38.496 107.047 38.448 106.859 38.448C106.695 38.448 106.563 38.49 106.463 38.574C106.367 38.658 106.319 38.78 106.319 38.94C106.319 39.052 106.355 39.146 106.427 39.222C106.503 39.294 106.595 39.354 106.703 39.402C106.815 39.446 106.971 39.498 107.171 39.558C107.443 39.638 107.665 39.718 107.837 39.798C108.009 39.878 108.157 39.998 108.281 40.158C108.405 40.318 108.467 40.528 108.467 40.788C108.467 41.012 108.409 41.22 108.293 41.412C108.177 41.604 108.007 41.758 107.783 41.874C107.559 41.986 107.293 42.042 106.985 42.042Z" fill="black"/>
</svg>
