<svg width="101" height="101" viewBox="0 0 101 101" fill="none" xmlns="http://www.w3.org/2000/svg">
<circle cx="50.5" cy="50.8671" r="50" fill="#DAA520"/>
<g clip-path="url(#clip0_5_602)">
<path d="M60.1154 26.2286C51.8173 26.2286 45.0904 29.9382 45.0904 34.5209C45.0904 39.1036 51.8192 42.8151 60.1154 42.8151C68.4135 42.8151 75.1404 39.1036 75.1404 34.5209C75.1404 29.9382 68.4115 26.2267 60.1154 26.2267V26.2286ZM75.1404 36.9844C75.1365 41.5671 68.4135 45.2786 60.1154 45.2786C51.8404 45.2786 45.1289 41.6075 45.0904 37.0459V40.2901C45.0904 42.2478 46.3442 44.0401 48.3981 45.4594C50.475 46.0248 52.325 46.8094 53.8654 47.8017C55.775 48.2863 57.875 48.5825 60.1154 48.5825C68.4135 48.5825 75.1404 44.8728 75.1404 40.2901V36.9844ZM75.1404 42.7536C75.1404 47.3363 68.4135 51.0478 60.1154 51.0478C59.1058 51.0478 58.125 50.9728 57.1712 50.8671C57.9239 51.8808 58.4373 53.0517 58.6731 54.2921C59.1519 54.319 59.625 54.3517 60.1154 54.3517C68.4135 54.3517 75.1404 50.6421 75.1404 46.0594V42.7536V42.7536ZM40.8846 47.3805C32.5865 47.3805 25.8596 51.0921 25.8596 55.6748C25.8596 60.2575 32.5885 63.969 40.8846 63.969C49.1827 63.969 55.9096 60.2575 55.9096 55.6748C55.9096 51.0921 49.1808 47.3805 40.8846 47.3805ZM75.1404 48.5228C75.1365 53.1055 68.4135 56.8171 60.1154 56.8171C59.6327 56.8171 59.1442 56.7825 58.6731 56.7555C58.6519 56.8998 58.6404 57.0921 58.6135 57.2363C58.7096 57.5267 58.7923 57.8132 58.7923 58.1401V60.0632C59.2289 60.0844 59.6673 60.1209 60.1154 60.1209C68.4135 60.1209 75.1404 56.4113 75.1404 51.8286V48.5228V48.5228ZM75.1404 54.2921C75.1365 58.8748 68.4135 62.5863 60.1154 62.5863C59.6327 62.5863 59.1442 62.5517 58.6731 62.5248C58.6519 62.669 58.6404 62.8613 58.6135 63.0055C58.7096 63.294 58.7923 63.5825 58.7923 63.9094V65.8325C59.2289 65.8536 59.6673 65.8901 60.1154 65.8901C68.4135 65.8901 75.1404 62.1805 75.1404 57.5978V54.2921V54.2921ZM55.9096 58.1382C55.9058 62.7209 49.1827 66.4325 40.8846 66.4325C32.6096 66.4325 25.8981 62.7613 25.8596 58.1978V61.444C25.8596 66.0267 32.5846 69.7382 40.8846 69.7382C49.1846 69.7382 55.9096 66.0267 55.9096 61.444V58.1382ZM55.9096 63.9075C55.9058 68.4901 49.1827 72.2017 40.8846 72.2017C32.6096 72.2017 25.8981 68.5305 25.8596 63.9671V67.2132C25.8596 71.7959 32.5846 75.5075 40.8846 75.5075C49.1846 75.5075 55.9096 71.7959 55.9096 67.2132V63.9075Z" fill="white"/>
</g>
<defs>
<clipPath id="clip0_5_602">
<rect width="50" height="50" fill="white" transform="translate(25.5 25.8671)"/>
</clipPath>
</defs>
</svg>
